<?xml version="1.0" encoding="UTF-8" ?>
<!DOCTYPE svg PUBLIC "-//W3C//DTD SVG 1.1//EN" "http://www.w3.org/Graphics/SVG/1.1/DTD/svg11.dtd">
<svg width="160pt" height="160pt" viewBox="0 0 160 160" version="1.1" xmlns="http://www.w3.org/2000/svg">
<g id="#000000ff">
<path fill="#000000" opacity="1.00" d=" M 61.02 46.01 C 64.81 39.33 72.32 34.98 80.01 35.07 C 87.67 34.99 95.15 39.31 98.95 45.96 C 103.13 52.99 102.93 62.45 98.19 69.16 C 97.52 70.40 96.25 71.47 96.30 72.97 C 96.21 79.98 96.31 86.98 96.27 93.99 C 101.51 94.01 106.76 93.99 112.00 94.00 C 112.00 99.33 112.00 104.67 112.00 110.00 C 109.27 110.00 106.54 110.00 103.81 110.00 C 107.23 117.34 110.68 124.67 114.13 132.00 C 118.75 132.00 123.37 132.00 128.00 132.00 C 128.00 137.33 128.00 142.67 128.00 148.00 C 96.00 148.00 64.00 148.00 32.00 148.00 C 32.00 142.67 32.00 137.33 32.00 132.00 C 36.62 132.00 41.25 132.00 45.87 132.00 C 49.32 124.67 52.77 117.34 56.19 110.01 C 53.46 110.00 50.73 110.00 48.00 110.00 C 48.00 104.67 48.00 99.33 48.00 94.00 C 53.24 93.99 58.49 94.01 63.73 93.99 C 63.68 86.97 63.79 79.95 63.71 72.93 C 63.73 71.44 62.47 70.38 61.81 69.15 C 57.08 62.46 56.87 53.03 61.02 46.01 M 75.46 39.63 C 68.48 41.37 62.94 47.69 62.19 54.85 C 61.31 61.42 64.48 68.29 70.03 71.92 C 75.66 75.79 83.54 75.95 89.34 72.32 C 94.62 69.16 98.02 63.14 97.94 56.98 C 98.34 45.67 86.32 36.37 75.46 39.63 M 67.69 75.28 C 67.77 81.52 67.70 87.76 67.73 93.99 C 75.91 94.00 84.09 94.00 92.27 93.99 C 92.30 87.76 92.22 81.52 92.32 75.28 C 84.97 80.10 75.03 80.10 67.69 75.28 M 52.00 98.00 C 52.00 100.67 52.00 103.33 52.00 106.00 C 70.67 106.00 89.33 106.00 108.00 106.00 C 108.00 103.33 108.00 100.67 108.00 98.00 C 89.33 98.00 70.67 98.00 52.00 98.00 M 60.48 110.12 C 57.24 117.48 53.67 124.69 50.31 132.00 C 70.10 132.00 89.90 132.00 109.69 132.00 C 106.23 124.65 102.84 117.27 99.31 109.97 C 86.36 110.12 73.42 109.82 60.48 110.12 M 36.00 136.00 C 36.00 138.67 36.00 141.33 36.00 144.00 C 65.34 144.00 94.67 144.00 124.00 144.00 C 124.00 141.33 124.00 138.67 124.00 136.00 C 94.67 136.00 65.33 136.00 36.00 136.00 Z" />
</g>
<g id="#0078d7ff">
<path fill="#0078d7" opacity="1.00" d=" M 75.46 39.63 C 86.32 36.37 98.34 45.67 97.94 56.98 C 98.02 63.14 94.62 69.16 89.34 72.32 C 83.54 75.95 75.66 75.79 70.03 71.92 C 64.48 68.29 61.31 61.42 62.19 54.85 C 62.94 47.69 68.48 41.37 75.46 39.63 Z" />
<path fill="#0078d7" opacity="1.00" d=" M 67.69 75.28 C 75.03 80.10 84.97 80.10 92.32 75.28 C 92.22 81.52 92.30 87.76 92.27 93.99 C 84.09 94.00 75.91 94.00 67.73 93.99 C 67.70 87.76 67.77 81.52 67.69 75.28 Z" />
<path fill="#0078d7" opacity="1.00" d=" M 52.00 98.00 C 70.67 98.00 89.33 98.00 108.00 98.00 C 108.00 100.67 108.00 103.33 108.00 106.00 C 89.33 106.00 70.67 106.00 52.00 106.00 C 52.00 103.33 52.00 100.67 52.00 98.00 Z" />
<path fill="#0078d7" opacity="1.00" d=" M 60.48 110.12 C 73.42 109.82 86.36 110.12 99.31 109.97 C 102.84 117.27 106.23 124.65 109.69 132.00 C 89.90 132.00 70.10 132.00 50.31 132.00 C 53.67 124.69 57.24 117.48 60.48 110.12 Z" />
<path fill="#0078d7" opacity="1.00" d=" M 36.00 136.00 C 65.33 136.00 94.67 136.00 124.00 136.00 C 124.00 138.67 124.00 141.33 124.00 144.00 C 94.67 144.00 65.34 144.00 36.00 144.00 C 36.00 141.33 36.00 138.67 36.00 136.00 Z" />
</g>
</svg>
