<?xml version="1.0" encoding="UTF-8" ?>
<!DOCTYPE svg PUBLIC "-//W3C//DTD SVG 1.1//EN" "http://www.w3.org/Graphics/SVG/1.1/DTD/svg11.dtd">
<svg width="160pt" height="160pt" viewBox="0 0 160 160" version="1.1" xmlns="http://www.w3.org/2000/svg">
<g id="#000000ff">
<path fill="#000000" opacity="1.00" d=" M 71.58 4.00 C 77.20 4.00 82.81 4.00 88.42 4.01 C 88.42 8.53 88.41 13.05 88.43 17.57 C 92.95 17.59 97.47 17.57 102.00 17.58 C 102.00 23.19 102.00 28.81 102.00 34.42 C 97.47 34.43 92.95 34.41 88.43 34.43 C 88.43 37.27 88.41 40.11 88.39 42.95 C 101.61 43.10 114.83 42.91 128.05 43.05 C 126.26 52.34 124.70 61.68 123.00 70.99 C 119.33 71.00 115.67 71.00 112.00 71.00 C 112.00 75.00 112.00 79.00 112.00 83.00 C 107.36 83.01 102.72 82.99 98.08 83.01 C 98.08 86.67 98.08 90.33 98.08 93.99 C 102.72 94.01 107.36 93.99 112.00 94.00 C 112.00 99.33 112.00 104.66 112.00 109.99 C 110.15 110.00 108.29 110.00 106.45 110.01 C 110.26 117.34 114.09 124.67 117.92 132.00 C 121.28 131.99 124.64 132.00 128.00 132.00 C 128.00 137.33 128.00 142.66 128.00 148.00 C 96.00 148.00 64.00 148.00 32.00 148.00 C 32.00 142.67 32.00 137.33 32.00 132.00 C 35.36 132.00 38.72 131.99 42.08 132.00 C 45.91 124.68 49.74 117.34 53.55 110.01 C 51.70 110.00 49.85 110.00 48.00 110.00 C 48.00 104.66 48.00 99.33 48.00 94.00 C 52.64 93.99 57.28 94.01 61.92 93.99 C 61.92 90.33 61.92 86.67 61.92 83.01 C 57.28 82.99 52.64 83.01 48.00 83.00 C 48.00 79.00 48.00 75.00 48.00 71.00 C 44.33 71.00 40.67 71.00 37.01 71.00 C 35.30 61.68 33.74 52.34 31.95 43.05 C 45.17 42.91 58.39 43.08 71.60 42.96 C 71.59 40.12 71.57 37.27 71.57 34.43 C 67.05 34.41 62.53 34.43 58.00 34.41 C 58.00 28.80 58.00 23.19 58.00 17.58 C 62.53 17.57 67.05 17.59 71.57 17.57 C 71.59 13.05 71.57 8.53 71.58 4.00 M 75.59 8.00 C 75.57 12.53 75.59 17.05 75.57 21.58 C 71.05 21.59 66.53 21.57 62.00 21.59 C 62.00 24.53 62.00 27.47 62.00 30.41 C 66.53 30.43 71.05 30.41 75.57 30.42 C 75.59 34.61 75.58 38.80 75.59 42.99 C 78.53 43.00 81.47 43.00 84.41 43.00 C 84.42 38.80 84.41 34.62 84.42 30.43 C 88.95 30.41 93.47 30.43 98.00 30.41 C 98.00 27.47 98.00 24.53 98.00 21.59 C 93.47 21.57 88.95 21.59 84.42 21.57 C 84.41 17.05 84.42 12.53 84.41 8.01 C 81.47 8.00 78.53 8.00 75.59 8.00 M 36.79 47.01 C 37.96 53.67 39.18 60.32 40.33 66.98 C 66.78 67.01 93.22 67.02 119.67 66.98 C 120.82 60.32 122.04 53.67 123.21 47.01 C 94.40 47.00 65.60 47.00 36.79 47.01 M 52.00 71.00 C 52.00 73.67 52.00 76.33 52.00 79.00 C 70.67 79.00 89.33 79.00 108.00 79.00 C 108.00 76.33 108.00 73.67 108.00 71.00 C 89.33 71.00 70.67 71.00 52.00 71.00 M 65.93 83.01 C 65.92 86.67 65.92 90.33 65.93 93.99 C 75.31 94.00 84.69 94.00 94.07 93.99 C 94.08 90.33 94.08 86.67 94.07 83.01 C 84.69 83.00 75.31 83.00 65.93 83.01 M 52.00 98.00 C 52.00 100.67 52.00 103.33 52.00 106.00 C 70.67 106.00 89.33 106.00 108.00 106.00 C 108.00 103.33 108.00 100.67 108.00 98.00 C 89.33 98.00 70.67 98.00 52.00 98.00 M 58.09 110.00 C 54.25 117.32 50.43 124.65 46.62 131.99 C 68.87 132.01 91.13 132.01 113.38 131.99 C 109.57 124.65 105.75 117.32 101.91 110.00 C 87.30 110.00 72.70 110.00 58.09 110.00 M 36.00 136.00 C 36.00 138.67 36.00 141.33 36.00 144.00 C 65.33 144.00 94.67 144.00 124.00 144.00 C 124.00 141.33 124.00 138.67 124.00 136.00 C 94.67 136.00 65.33 136.00 36.00 136.00 Z" />
</g>
<g id="#0078d7ff">
<path fill="#0078d7" opacity="1.00" d=" M 75.59 8.00 C 78.53 8.00 81.47 8.00 84.41 8.01 C 84.42 12.53 84.41 17.05 84.42 21.57 C 88.95 21.59 93.47 21.57 98.00 21.59 C 98.00 24.53 98.00 27.47 98.00 30.41 C 93.47 30.43 88.95 30.41 84.42 30.43 C 84.41 34.62 84.42 38.80 84.41 43.00 C 81.47 43.00 78.53 43.00 75.59 42.99 C 75.58 38.80 75.59 34.61 75.57 30.42 C 71.05 30.41 66.53 30.43 62.00 30.41 C 62.00 27.47 62.00 24.53 62.00 21.59 C 66.53 21.57 71.05 21.59 75.57 21.58 C 75.59 17.05 75.57 12.53 75.59 8.00 Z" />
<path fill="#0078d7" opacity="1.00" d=" M 36.79 47.01 C 65.60 47.00 94.40 47.00 123.21 47.01 C 122.04 53.67 120.82 60.32 119.67 66.98 C 93.22 67.02 66.78 67.01 40.33 66.98 C 39.18 60.32 37.96 53.67 36.79 47.01 Z" />
<path fill="#0078d7" opacity="1.00" d=" M 52.00 71.00 C 70.67 71.00 89.33 71.00 108.00 71.00 C 108.00 73.67 108.00 76.33 108.00 79.00 C 89.33 79.00 70.67 79.00 52.00 79.00 C 52.00 76.33 52.00 73.67 52.00 71.00 Z" />
<path fill="#0078d7" opacity="1.00" d=" M 65.93 83.01 C 75.31 83.00 84.69 83.00 94.07 83.01 C 94.08 86.67 94.08 90.33 94.07 93.99 C 84.69 94.00 75.31 94.00 65.93 93.99 C 65.92 90.33 65.92 86.67 65.93 83.01 Z" />
<path fill="#0078d7" opacity="1.00" d=" M 52.00 98.00 C 70.67 98.00 89.33 98.00 108.00 98.00 C 108.00 100.67 108.00 103.33 108.00 106.00 C 89.33 106.00 70.67 106.00 52.00 106.00 C 52.00 103.33 52.00 100.67 52.00 98.00 Z" />
<path fill="#0078d7" opacity="1.00" d=" M 58.09 110.00 C 72.70 110.00 87.30 110.00 101.91 110.00 C 105.75 117.32 109.57 124.65 113.38 131.99 C 91.13 132.01 68.87 132.01 46.62 131.99 C 50.43 124.65 54.25 117.32 58.09 110.00 Z" />
<path fill="#0078d7" opacity="1.00" d=" M 36.00 136.00 C 65.33 136.00 94.67 136.00 124.00 136.00 C 124.00 138.67 124.00 141.33 124.00 144.00 C 94.67 144.00 65.33 144.00 36.00 144.00 C 36.00 141.33 36.00 138.67 36.00 136.00 Z" />
</g>
</svg>
