<?xml version="1.0" encoding="UTF-8" ?>
<!DOCTYPE svg PUBLIC "-//W3C//DTD SVG 1.1//EN" "http://www.w3.org/Graphics/SVG/1.1/DTD/svg11.dtd">
<svg width="160pt" height="160pt" viewBox="0 0 160 160" version="1.1" xmlns="http://www.w3.org/2000/svg">
<g id="#0078d7ff">
<path fill="#0078d7" opacity="1.00" d=" M 60.65 46.68 C 63.99 40.29 70.68 35.80 77.87 35.18 C 85.26 34.38 92.90 37.70 97.38 43.62 C 103.06 50.78 103.49 61.64 98.22 69.14 C 97.50 70.38 96.17 71.46 96.28 73.02 C 96.25 80.01 96.29 87.00 96.27 93.99 C 101.51 94.01 106.75 93.99 112.00 94.00 C 112.00 99.33 112.00 104.67 112.00 110.00 C 109.26 110.00 106.53 110.00 103.80 110.00 C 107.24 117.34 110.67 124.68 114.13 132.00 C 118.75 132.00 123.38 132.00 128.00 132.00 C 128.00 137.33 128.00 142.67 128.00 148.00 C 96.00 148.00 64.00 148.00 32.00 148.00 C 32.00 142.67 32.00 137.33 32.00 132.00 C 36.62 132.00 41.25 132.00 45.87 132.00 C 49.33 124.68 52.76 117.34 56.20 110.00 C 53.47 110.00 50.74 110.00 48.00 110.00 C 48.00 104.67 48.00 99.33 48.00 94.00 C 53.24 93.99 58.49 94.01 63.73 93.99 C 63.71 86.98 63.75 79.97 63.72 72.97 C 63.85 71.68 62.81 70.75 62.20 69.75 C 57.30 63.21 56.75 53.84 60.65 46.68 M 75.47 39.63 C 65.89 41.86 59.71 52.82 62.81 62.18 C 65.36 71.43 76.08 77.22 85.21 74.18 C 94.21 71.67 99.96 61.44 97.36 52.44 C 95.16 43.13 84.70 36.97 75.47 39.63 M 67.68 75.25 C 67.78 81.50 67.70 87.75 67.73 93.99 C 75.91 94.00 84.09 94.00 92.27 93.99 C 92.30 87.75 92.22 81.50 92.32 75.25 C 85.00 80.11 75.00 80.12 67.68 75.25 M 52.00 98.00 C 52.00 100.67 52.00 103.33 52.00 106.00 C 70.67 106.00 89.33 106.00 108.00 106.00 C 108.00 103.33 108.00 100.67 108.00 98.00 C 89.33 98.00 70.67 98.00 52.00 98.00 M 50.31 132.00 C 70.10 132.00 89.90 132.00 109.69 132.00 C 106.21 124.65 102.87 117.23 99.27 109.95 C 86.39 110.06 73.52 109.97 60.64 109.99 C 57.18 117.32 53.74 124.66 50.31 132.00 M 36.00 136.00 C 36.00 138.67 36.00 141.33 36.00 144.00 C 65.33 144.00 94.66 144.00 124.00 144.00 C 124.00 141.33 124.00 138.67 124.00 136.00 C 94.66 136.00 65.33 136.00 36.00 136.00 Z" />
</g>
<g id="#ffffffff">
<path fill="#ffffff" opacity="1.00" d=" M 75.47 39.63 C 84.70 36.97 95.16 43.13 97.36 52.44 C 99.96 61.44 94.21 71.67 85.21 74.18 C 76.08 77.22 65.36 71.43 62.81 62.18 C 59.71 52.82 65.89 41.86 75.47 39.63 Z" />
<path fill="#ffffff" opacity="1.00" d=" M 67.68 75.25 C 75.00 80.12 85.00 80.11 92.32 75.25 C 92.22 81.50 92.30 87.75 92.27 93.99 C 84.09 94.00 75.91 94.00 67.73 93.99 C 67.70 87.75 67.78 81.50 67.68 75.25 Z" />
<path fill="#ffffff" opacity="1.00" d=" M 52.00 98.00 C 70.67 98.00 89.33 98.00 108.00 98.00 C 108.00 100.67 108.00 103.33 108.00 106.00 C 89.33 106.00 70.67 106.00 52.00 106.00 C 52.00 103.33 52.00 100.67 52.00 98.00 Z" />
<path fill="#ffffff" opacity="1.00" d=" M 50.31 132.00 C 53.74 124.66 57.18 117.32 60.64 109.99 C 73.52 109.97 86.39 110.06 99.27 109.95 C 102.87 117.23 106.21 124.65 109.69 132.00 C 89.90 132.00 70.10 132.00 50.31 132.00 Z" />
<path fill="#ffffff" opacity="1.00" d=" M 36.00 136.00 C 65.33 136.00 94.66 136.00 124.00 136.00 C 124.00 138.67 124.00 141.33 124.00 144.00 C 94.66 144.00 65.33 144.00 36.00 144.00 C 36.00 141.33 36.00 138.67 36.00 136.00 Z" />
</g>
</svg>
