<?xml version="1.0" encoding="UTF-8" ?>
<!DOCTYPE svg PUBLIC "-//W3C//DTD SVG 1.1//EN" "http://www.w3.org/Graphics/SVG/1.1/DTD/svg11.dtd">
<svg width="160pt" height="160pt" viewBox="0 0 160 160" version="1.1" xmlns="http://www.w3.org/2000/svg">
<g id="#0078d7ff">
<path fill="#0078d7" opacity="1.00" d=" M 72.72 9.42 C 74.73 6.67 77.84 2.87 81.70 4.43 C 84.03 5.76 86.05 7.78 87.31 10.15 C 88.58 13.13 85.97 15.52 84.21 17.54 C 87.10 22.14 89.98 26.76 92.81 31.40 C 97.73 28.79 102.59 26.09 107.50 23.48 C 106.52 21.17 104.93 18.26 106.87 15.97 C 108.73 13.97 111.28 12.51 113.95 11.93 C 117.94 11.67 119.85 15.97 121.07 19.07 C 122.28 22.71 118.61 24.90 115.98 26.38 C 114.65 31.89 113.59 37.46 112.38 43.00 C 117.61 43.01 122.83 42.97 128.06 43.04 C 126.25 52.34 124.70 61.68 123.00 71.00 C 119.33 71.00 115.66 71.00 112.00 71.00 C 112.00 75.00 112.00 79.00 112.00 83.00 C 107.36 83.00 102.72 83.00 98.08 83.00 C 98.08 86.67 98.08 90.33 98.08 94.00 C 102.72 94.00 107.36 94.00 112.00 94.00 C 112.00 99.33 112.00 104.66 112.00 110.00 C 110.14 110.00 108.29 110.00 106.44 110.01 C 110.26 117.34 114.08 124.67 117.91 132.00 C 121.27 132.00 124.64 132.00 128.00 132.00 C 128.00 137.33 128.00 142.67 128.00 148.00 C 96.00 148.00 64.00 148.00 32.00 148.00 C 32.00 142.67 32.00 137.33 32.00 132.00 C 35.36 132.00 38.73 132.00 42.09 132.00 C 45.92 124.67 49.74 117.34 53.56 110.01 C 51.71 110.00 49.85 110.00 48.00 110.00 C 48.00 104.66 48.00 99.33 48.00 94.00 C 52.64 94.00 57.28 94.00 61.92 94.00 C 61.92 90.33 61.92 86.67 61.92 83.00 C 57.28 83.00 52.64 83.00 48.00 83.00 C 48.00 79.00 48.00 75.00 48.00 71.00 C 44.33 71.00 40.67 71.00 37.00 71.00 C 35.30 61.68 33.75 52.34 31.94 43.04 C 37.01 42.97 42.09 43.01 47.16 43.00 C 45.88 37.45 45.01 31.80 43.51 26.31 C 41.66 24.05 37.91 22.64 38.36 19.14 C 38.98 16.35 40.84 13.83 43.05 12.05 C 46.52 9.97 50.18 13.10 52.60 15.41 C 54.94 17.77 53.27 21.06 51.84 23.39 C 56.94 26.19 61.97 29.11 67.12 31.82 C 69.85 27.05 72.84 22.45 75.73 17.78 C 73.62 15.63 70.66 12.62 72.72 9.42 M 75.65 11.90 C 77.05 13.26 78.46 14.62 79.89 15.95 C 81.26 14.61 82.61 13.26 83.94 11.89 C 82.62 10.46 81.27 9.05 79.91 7.65 C 78.46 9.04 77.04 10.46 75.65 11.90 M 42.03 19.61 C 43.58 20.88 45.19 22.07 46.84 23.21 C 47.97 21.55 49.08 19.89 50.15 18.20 C 48.52 17.14 46.88 16.09 45.21 15.08 C 44.14 16.58 43.08 18.09 42.03 19.61 M 110.09 18.29 C 109.78 20.32 111.82 21.94 112.72 23.64 C 114.21 22.74 115.75 21.89 117.14 20.83 C 117.08 18.89 115.59 17.31 114.81 15.60 C 113.20 16.42 111.53 17.19 110.09 18.29 M 69.60 37.86 C 62.31 33.99 55.34 29.48 47.80 26.09 C 48.75 31.76 50.10 37.35 51.23 42.99 C 70.25 43.01 89.27 42.99 108.28 43.01 C 109.42 37.51 110.74 32.05 111.63 26.50 C 104.13 28.95 97.71 33.79 90.60 37.13 C 88.26 30.48 84.04 24.70 80.06 18.95 C 76.01 24.89 71.35 30.76 69.60 37.86 M 36.78 47.00 C 37.96 53.67 39.17 60.32 40.34 66.99 C 66.78 67.01 93.22 67.00 119.66 66.99 C 120.83 60.32 122.04 53.67 123.22 47.00 C 94.41 47.00 65.59 47.00 36.78 47.00 M 52.00 71.00 C 52.00 73.67 52.00 76.33 52.00 79.00 C 70.67 79.00 89.33 79.00 108.00 79.00 C 108.00 76.33 108.00 73.67 108.00 71.00 C 89.33 71.00 70.67 71.00 52.00 71.00 M 65.92 83.00 C 65.92 86.67 65.92 90.33 65.92 94.00 C 75.30 94.00 84.69 94.00 94.08 94.00 C 94.08 90.33 94.08 86.67 94.08 83.00 C 84.69 83.00 75.31 83.00 65.92 83.00 M 52.00 98.00 C 52.00 100.67 52.00 103.33 52.00 106.00 C 70.67 106.00 89.33 106.00 108.00 106.00 C 108.00 103.33 108.00 100.67 108.00 98.00 C 89.33 98.00 70.67 98.00 52.00 98.00 M 58.08 110.00 C 54.26 117.33 50.42 124.66 46.61 131.99 C 68.87 132.00 91.13 132.00 113.39 131.99 C 109.57 124.66 105.75 117.33 101.92 110.00 C 87.31 110.00 72.69 110.00 58.08 110.00 M 36.00 136.00 C 36.00 138.67 36.00 141.33 36.00 144.00 C 65.33 144.00 94.67 144.00 124.00 144.00 C 124.00 141.33 124.00 138.67 124.00 136.00 C 94.67 136.00 65.33 136.00 36.00 136.00 Z" />
</g>
<g id="#ffffffff">
<path fill="#ffffff" opacity="1.00" d=" M 75.65 11.90 C 77.04 10.46 78.46 9.04 79.91 7.65 C 81.27 9.05 82.62 10.46 83.94 11.89 C 82.61 13.26 81.26 14.61 79.89 15.95 C 78.46 14.62 77.05 13.26 75.65 11.90 Z" />
<path fill="#ffffff" opacity="1.00" d=" M 42.03 19.61 C 43.08 18.09 44.14 16.58 45.21 15.08 C 46.88 16.09 48.52 17.14 50.15 18.20 C 49.08 19.89 47.97 21.55 46.84 23.21 C 45.19 22.07 43.58 20.88 42.03 19.61 Z" />
<path fill="#ffffff" opacity="1.00" d=" M 110.09 18.29 C 111.53 17.19 113.20 16.42 114.81 15.60 C 115.59 17.31 117.08 18.89 117.14 20.83 C 115.75 21.89 114.21 22.74 112.72 23.64 C 111.82 21.94 109.78 20.32 110.09 18.29 Z" />
<path fill="#ffffff" opacity="1.00" d=" M 69.60 37.86 C 71.35 30.76 76.01 24.89 80.06 18.95 C 84.04 24.70 88.26 30.48 90.60 37.13 C 97.71 33.79 104.13 28.95 111.63 26.50 C 110.74 32.05 109.42 37.51 108.28 43.01 C 89.27 42.99 70.25 43.01 51.23 42.99 C 50.10 37.35 48.75 31.76 47.80 26.09 C 55.34 29.48 62.31 33.99 69.60 37.86 Z" />
<path fill="#ffffff" opacity="1.00" d=" M 36.78 47.00 C 65.59 47.00 94.41 47.00 123.22 47.00 C 122.04 53.67 120.83 60.32 119.66 66.99 C 93.22 67.00 66.78 67.01 40.34 66.99 C 39.17 60.32 37.96 53.67 36.78 47.00 Z" />
<path fill="#ffffff" opacity="1.00" d=" M 52.00 71.00 C 70.67 71.00 89.33 71.00 108.00 71.00 C 108.00 73.67 108.00 76.33 108.00 79.00 C 89.33 79.00 70.67 79.00 52.00 79.00 C 52.00 76.33 52.00 73.67 52.00 71.00 Z" />
<path fill="#ffffff" opacity="1.00" d=" M 65.92 83.00 C 75.31 83.00 84.69 83.00 94.08 83.00 C 94.08 86.67 94.08 90.33 94.08 94.00 C 84.69 94.00 75.30 94.00 65.92 94.00 C 65.92 90.33 65.92 86.67 65.92 83.00 Z" />
<path fill="#ffffff" opacity="1.00" d=" M 52.00 98.00 C 70.67 98.00 89.33 98.00 108.00 98.00 C 108.00 100.67 108.00 103.33 108.00 106.00 C 89.33 106.00 70.67 106.00 52.00 106.00 C 52.00 103.33 52.00 100.67 52.00 98.00 Z" />
<path fill="#ffffff" opacity="1.00" d=" M 58.08 110.00 C 72.69 110.00 87.31 110.00 101.92 110.00 C 105.75 117.33 109.57 124.66 113.39 131.99 C 91.13 132.00 68.87 132.00 46.61 131.99 C 50.42 124.66 54.26 117.33 58.08 110.00 Z" />
<path fill="#ffffff" opacity="1.00" d=" M 36.00 136.00 C 65.33 136.00 94.67 136.00 124.00 136.00 C 124.00 138.67 124.00 141.33 124.00 144.00 C 94.67 144.00 65.33 144.00 36.00 144.00 C 36.00 141.33 36.00 138.67 36.00 136.00 Z" />
</g>
</svg>
