<svg viewBox="0 0 64 64" xmlns="http://www.w3.org/2000/svg" stroke-width="3" stroke="#000" fill="none"><path d="m50.4 24.38 7.9-1.24m-10.37-6.03 4.94-2.91m-9.98-2.47 3.32-7.22m-12.76 6.18-.04-5.73m-9.12 7.13-2.67-7.58m-3.63 12.52-5.03-2.74m2.82 9.68-7.75-1.31m18.19 22.81c0-5.16-3.19-9.49-4.91-12.69A12.24 12.24 0 0 1 19.85 27c0-6.79 6.21-12.3 13-12.3m6.63 30.77c0-5.16 3.19-9.49 4.91-12.69A12.24 12.24 0 0 0 45.85 27c0-6.79-6.21-12.3-13-12.3m3.47 38.98v.84a3.23 3.23 0 1 1-6.44 0v-.84m-5.31-27.43a7.5 7.5 0 0 1 7.88-7.11"/><rect x="23.63" y="45.19" width="18.93" height="4.25" rx="2.12"/><rect x="24.79" y="49.43" width="16.61" height="4.25" rx="2.12"/></svg>