<svg viewBox="0 0 64 64" xmlns="http://www.w3.org/2000/svg" stroke-width="3" stroke="#000" fill="none"><path d="M24.78 41.94c0-5.63-3.48-10.34-5.35-13.83a13.38 13.38 0 0 1-1.59-6.33c0-7.4 6.76-13.4 14.16-13.4m7.22 33.56c0-5.63 3.48-10.34 5.35-13.83a13.38 13.38 0 0 0 1.59-6.33c0-7.4-6.76-13.4-14.16-13.4m3.78 42.49v.93a3.52 3.52 0 1 1-7 0v-.93m-5.91-29.73a8.19 8.19 0 0 1 8.59-7.75"/><rect x="21.96" y="41.63" width="20.62" height="4.62" rx="2.31"/><rect x="23.22" y="46.25" width="18.09" height="4.62" rx="2.31"/></svg>