<?xml version="1.0" encoding="UTF-8" ?>
<!DOCTYPE svg PUBLIC "-//W3C//DTD SVG 1.1//EN" "http://www.w3.org/Graphics/SVG/1.1/DTD/svg11.dtd">
<svg width="160pt" height="160pt" viewBox="0 0 160 160" version="1.1" xmlns="http://www.w3.org/2000/svg">
<g id="#000000ff">
<path fill="#000000" opacity="1.00" d=" M 77.25 12.37 C 80.95 10.97 83.86 14.48 85.92 17.01 C 87.42 18.68 86.87 20.95 86.26 22.86 C 90.73 25.94 94.20 30.16 98.10 33.89 C 100.87 36.77 104.17 39.35 105.84 43.07 C 108.17 48.11 107.35 54.43 103.75 58.66 C 101.29 61.55 98.37 64.00 95.94 66.91 C 101.29 67.08 106.64 66.97 112.00 67.00 C 112.00 72.33 112.00 77.67 112.00 83.00 C 106.75 83.00 101.51 82.99 96.27 83.01 C 96.28 86.67 96.28 90.33 96.27 93.99 C 101.51 94.01 106.75 94.00 112.00 94.00 C 112.00 99.33 112.00 104.67 112.00 110.00 C 109.27 109.99 106.54 110.01 103.80 110.00 C 107.23 117.34 110.68 124.68 114.13 132.00 C 118.75 132.00 123.38 132.00 128.00 132.00 C 128.00 137.33 128.00 142.67 128.00 148.00 C 96.00 148.00 64.00 148.00 32.00 148.00 C 32.00 142.67 32.00 137.33 32.00 132.00 C 36.63 132.00 41.25 132.00 45.88 132.00 C 49.32 124.67 52.77 117.34 56.20 110.00 C 53.46 110.01 50.73 109.99 48.00 110.00 C 48.00 104.67 48.00 99.33 48.00 94.00 C 53.24 94.00 58.49 94.01 63.73 93.99 C 63.72 90.33 63.72 86.67 63.73 83.01 C 58.49 82.99 53.24 83.00 48.00 83.00 C 48.00 77.67 48.00 72.33 48.00 67.00 C 52.92 67.00 57.84 67.01 62.77 67.00 C 58.58 62.36 52.57 58.51 51.47 51.89 C 50.31 46.31 52.94 40.69 57.11 37.04 C 62.04 32.41 66.40 27.14 71.82 23.04 C 69.39 18.54 73.60 14.40 77.25 12.37 M 74.70 19.99 C 76.06 21.49 77.49 22.93 78.99 24.30 C 80.50 22.94 81.94 21.51 83.30 20.01 C 81.94 18.51 80.51 17.07 79.02 15.70 C 77.51 17.05 76.06 18.49 74.70 19.99 M 73.06 27.10 C 67.89 31.57 63.29 36.67 58.42 41.45 C 54.48 45.26 54.12 52.06 57.77 56.18 C 61.13 59.93 64.90 63.29 68.35 66.96 C 75.54 67.05 82.74 66.97 89.93 67.00 C 93.54 63.28 97.42 59.80 100.85 55.89 C 104.55 51.46 103.60 44.42 99.28 40.73 C 93.93 35.89 89.55 29.83 83.39 25.98 C 81.80 27.00 80.09 28.42 78.06 27.85 C 76.41 27.41 74.58 25.31 73.06 27.10 M 52.00 71.00 C 52.00 73.67 52.00 76.33 52.00 79.00 C 70.67 79.00 89.33 79.00 108.00 79.00 C 108.00 76.33 108.00 73.67 108.00 71.00 C 89.33 71.00 70.67 71.00 52.00 71.00 M 67.73 83.00 C 67.72 86.67 67.72 90.33 67.73 94.00 C 75.91 94.00 84.09 94.00 92.27 93.99 C 92.28 90.33 92.28 86.67 92.27 83.01 C 84.09 82.99 75.91 83.00 67.73 83.00 M 52.00 98.00 C 52.00 100.67 52.00 103.33 52.00 106.00 C 70.67 106.00 89.33 106.00 108.00 106.00 C 108.00 103.33 108.00 100.67 108.00 98.00 C 89.33 98.00 70.67 98.00 52.00 98.00 M 50.31 132.00 C 70.10 132.00 89.90 132.00 109.69 132.00 C 106.20 124.65 102.87 117.22 99.25 109.93 C 86.39 110.07 73.53 109.99 60.68 109.98 C 57.17 117.29 53.76 124.65 50.31 132.00 M 36.00 136.00 C 36.00 138.67 36.00 141.33 36.00 144.00 C 65.33 144.00 94.67 144.00 124.00 144.00 C 124.00 141.33 124.00 138.67 124.00 136.00 C 94.67 136.00 65.33 136.00 36.00 136.00 Z" />
</g>
<g id="#0078d7ff">
<path fill="#0078d7" opacity="1.00" d=" M 74.70 19.99 C 76.06 18.49 77.51 17.05 79.02 15.70 C 80.51 17.07 81.94 18.51 83.30 20.01 C 81.94 21.51 80.50 22.94 78.99 24.30 C 77.49 22.93 76.06 21.49 74.70 19.99 Z" />
<path fill="#0078d7" opacity="1.00" d=" M 73.06 27.10 C 74.58 25.31 76.41 27.41 78.06 27.85 C 80.09 28.42 81.80 27.00 83.39 25.98 C 89.55 29.83 93.93 35.89 99.28 40.73 C 103.60 44.42 104.55 51.46 100.85 55.89 C 97.42 59.80 93.54 63.28 89.93 67.00 C 82.74 66.97 75.54 67.05 68.35 66.96 C 64.90 63.29 61.13 59.93 57.77 56.18 C 54.12 52.06 54.48 45.26 58.42 41.45 C 63.29 36.67 67.89 31.57 73.06 27.10 Z" />
<path fill="#0078d7" opacity="1.00" d=" M 52.00 71.00 C 70.67 71.00 89.33 71.00 108.00 71.00 C 108.00 73.67 108.00 76.33 108.00 79.00 C 89.33 79.00 70.67 79.00 52.00 79.00 C 52.00 76.33 52.00 73.67 52.00 71.00 Z" />
<path fill="#0078d7" opacity="1.00" d=" M 67.73 83.00 C 75.91 83.00 84.09 82.99 92.27 83.01 C 92.28 86.67 92.28 90.33 92.27 93.99 C 84.09 94.00 75.91 94.00 67.73 94.00 C 67.72 90.33 67.72 86.67 67.73 83.00 Z" />
<path fill="#0078d7" opacity="1.00" d=" M 52.00 98.00 C 70.67 98.00 89.33 98.00 108.00 98.00 C 108.00 100.67 108.00 103.33 108.00 106.00 C 89.33 106.00 70.67 106.00 52.00 106.00 C 52.00 103.33 52.00 100.67 52.00 98.00 Z" />
<path fill="#0078d7" opacity="1.00" d=" M 50.31 132.00 C 53.76 124.65 57.17 117.29 60.68 109.98 C 73.53 109.99 86.39 110.07 99.25 109.93 C 102.87 117.22 106.20 124.65 109.69 132.00 C 89.90 132.00 70.10 132.00 50.31 132.00 Z" />
<path fill="#0078d7" opacity="1.00" d=" M 36.00 136.00 C 65.33 136.00 94.67 136.00 124.00 136.00 C 124.00 138.67 124.00 141.33 124.00 144.00 C 94.67 144.00 65.33 144.00 36.00 144.00 C 36.00 141.33 36.00 138.67 36.00 136.00 Z" />
</g>
</svg>
