<svg viewBox="0 0 160 160" xmlns="http://www.w3.org/2000/svg"><path d="M29.95 34.05c8.68-.12 17.37-.02 26.06-.05.66 2.67 1.32 5.33 2 7.99 3.33.01 6.66.01 9.99.01-.01-2.67.01-5.33 0-8h24c-.01 2.67.01 5.33 0 8 3.33 0 6.66 0 9.99-.01.68-2.66 1.34-5.32 2-7.99 8.69.02 17.37-.06 26.06.05-3.47 12.29-6.67 24.64-10.06 36.95-2.66-.01-5.33.01-7.99 0-.01 4 .01 8 0 12-5.25.01-10.49-.01-15.73.01v10.98c5.24.02 10.49 0 15.73.01v16c-2.73-.01-5.46.01-8.19 0 3.43 7.34 6.86 14.68 10.33 22 4.62 0 9.24-.01 13.86 0v16H32v-16c4.62-.01 9.24 0 13.86 0 3.47-7.32 6.91-14.66 10.33-22-2.73.01-5.46-.01-8.19 0V94c5.24-.01 10.49.01 15.73-.01V83.01c-5.24-.02-10.49 0-15.73-.01-.01-4 .01-8 0-12-2.67.01-5.33-.01-7.99 0-3.39-12.31-6.58-24.66-10.06-36.95M35.23 38c2.61 9.67 5.21 19.34 7.85 29h73.84c2.64-9.66 5.24-19.33 7.84-29h-17.63c-.67 2.67-1.34 5.33-2.01 7.99-5.71.02-11.41.01-17.12.01.01-2.67-.01-5.33 0-8H72c.01 2.67-.01 5.33 0 8-5.71 0-11.41 0-17.12-.01-.67-2.66-1.34-5.32-2.01-7.99H35.23m16.78 33c-.02 2.67-.02 5.33 0 8h55.98c.02-2.67.02-5.33 0-8H52.01m15.72 12.01c-.01 3.66-.01 7.32 0 10.98 8.18.02 16.36.02 24.54 0 .01-3.66.01-7.32 0-10.98-8.18-.02-16.36-.02-24.54 0M52.01 98c-.02 2.67-.02 5.33 0 8h55.98c.02-2.67.02-5.33 0-8H52.01m-1.7 34h59.38c-3.47-7.35-6.83-14.75-10.41-22.04-12.84.05-25.68.1-38.51-.02-3.66 7.26-6.96 14.71-10.46 22.06m-14.3 4c-.02 2.67-.02 5.33 0 8h87.98c.01-2.67.01-5.33 0-8H36.01z"/><path d="M35.23 38h17.64c.67 2.67 1.34 5.33 2.01 7.99C60.59 46 66.29 46 72 46c-.01-2.67.01-5.33 0-8h16c-.01 2.67.01 5.33 0 8 5.71 0 11.41.01 17.12-.01.67-2.66 1.34-5.32 2.01-7.99h17.63c-2.6 9.67-5.2 19.34-7.84 29H43.08c-2.64-9.66-5.24-19.33-7.85-29zm16.78 33h55.98c.02 2.67.02 5.33 0 8H52.01c-.02-2.67-.02-5.33 0-8zm15.72 12.01c8.18-.02 16.36-.02 24.54 0 .01 3.66.01 7.32 0 10.98-8.18.02-16.36.02-24.54 0-.01-3.66-.01-7.32 0-10.98zM52.01 98h55.98c.02 2.67.02 5.33 0 8H52.01c-.02-2.67-.02-5.33 0-8zm-1.7 34c3.5-7.35 6.8-14.8 10.46-22.06 12.83.12 25.67.07 38.51.02 3.58 7.29 6.94 14.69 10.41 22.04H50.31zm-14.3 4h87.98c.01 2.67.01 5.33 0 8H36.01c-.02-2.67-.02-5.33 0-8z" fill="#0078d7"/></svg>