<svg viewBox="0 0 160 160" xmlns="http://www.w3.org/2000/svg"><path d="M61.02 46.01c3.79-6.68 11.3-11.03 18.99-10.94 7.66-.08 15.14 4.24 18.94 10.89 4.18 7.03 3.98 16.49-.76 23.2-.67 1.24-1.94 2.31-1.89 3.81-.09 7.01.01 14.01-.03 21.02 5.24.02 10.49 0 15.73.01v16h-8.19c3.42 7.34 6.87 14.67 10.32 22H128v16H32v-16h13.87c3.45-7.33 6.9-14.66 10.32-21.99-2.73-.01-5.46-.01-8.19-.01V94c5.24-.01 10.49.01 15.73-.01-.05-7.02.06-14.04-.02-21.06.02-1.49-1.24-2.55-1.9-3.78-4.73-6.69-4.94-16.12-.79-23.14m14.44-6.38c-6.98 1.74-12.52 8.06-13.27 15.22-.88 6.57 2.29 13.44 7.84 17.07 5.63 3.87 13.51 4.03 19.31.4 5.28-3.16 8.68-9.18 8.6-15.34.4-11.31-11.62-20.61-22.48-17.35m-7.77 35.65c.08 6.24.01 12.48.04 18.71 8.18.01 16.36.01 24.54 0 .03-6.23-.05-12.47.05-18.71-7.35 4.82-17.29 4.82-24.63 0M52 98v8h56v-8H52m8.48 12.12c-3.24 7.36-6.81 14.57-10.17 21.88h59.38c-3.46-7.35-6.85-14.73-10.38-22.03-12.95.15-25.89-.15-38.83.15M36 136v8h88v-8H36z"/><g fill="#0078d7"><path d="M75.46 39.63c10.86-3.26 22.88 6.04 22.48 17.35.08 6.16-3.32 12.18-8.6 15.34-5.8 3.63-13.68 3.47-19.31-.4-5.55-3.63-8.72-10.5-7.84-17.07.75-7.16 6.29-13.48 13.27-15.22z"/><path d="M67.69 75.28c7.34 4.82 17.28 4.82 24.63 0-.1 6.24-.02 12.48-.05 18.71-8.18.01-16.36.01-24.54 0-.03-6.23.04-12.47-.04-18.71zM52 98h56v8H52v-8zm8.48 12.12c12.94-.3 25.88 0 38.83-.15 3.53 7.3 6.92 14.68 10.38 22.03H50.31c3.36-7.31 6.93-14.52 10.17-21.88zM36 136h88v8H36v-8z"/></g></svg>