<svg viewBox="0 0 160 160" xmlns="http://www.w3.org/2000/svg"><path d="M77.25 12.37c3.7-1.4 6.61 2.11 8.67 4.64 1.5 1.67.95 3.94.34 5.85 4.47 3.08 7.94 7.3 11.84 11.03 2.77 2.88 6.07 5.46 7.74 9.18 2.33 5.04 1.51 11.36-2.09 15.59-2.46 2.89-5.38 5.34-7.81 8.25 5.35.17 10.7.06 16.06.09v16c-5.25 0-10.49-.01-15.73.01.01 3.66.01 7.32 0 10.98 5.24.02 10.48.01 15.73.01v16c-2.73-.01-5.46.01-8.2 0 3.43 7.34 6.88 14.68 10.33 22H128v16H32v-16h13.88c3.44-7.33 6.89-14.66 10.32-22-2.74.01-5.47-.01-8.2 0V94c5.24 0 10.49.01 15.73-.01-.01-3.66-.01-7.32 0-10.98C58.49 82.99 53.24 83 48 83V67c4.92 0 9.84.01 14.77 0-4.19-4.64-10.2-8.49-11.3-15.11-1.16-5.58 1.47-11.2 5.64-14.85 4.93-4.63 9.29-9.9 14.71-14-2.43-4.5 1.78-8.64 5.43-10.67m-2.55 7.62c1.36 1.5 2.79 2.94 4.29 4.31 1.51-1.36 2.95-2.79 4.31-4.29-1.36-1.5-2.79-2.94-4.28-4.31a58.285 58.285 0 0 0-4.32 4.29m-1.64 7.11c-5.17 4.47-9.77 9.57-14.64 14.35-3.94 3.81-4.3 10.61-.65 14.73 3.36 3.75 7.13 7.11 10.58 10.78 7.19.09 14.39.01 21.58.04 3.61-3.72 7.49-7.2 10.92-11.11 3.7-4.43 2.75-11.47-1.57-15.16-5.35-4.84-9.73-10.9-15.89-14.75-1.59 1.02-3.3 2.44-5.33 1.87-1.65-.44-3.48-2.54-5-.75M52 71v8h56v-8H52m15.73 12c-.01 3.67-.01 7.33 0 11 8.18 0 16.36 0 24.54-.01.01-3.66.01-7.32 0-10.98-8.18-.02-16.36-.01-24.54-.01M52 98v8h56v-8H52m-1.69 34h59.38c-3.49-7.35-6.82-14.78-10.44-22.07-12.86.14-25.72.06-38.57.05-3.51 7.31-6.92 14.67-10.37 22.02M36 136v8h88v-8H36z"/><path d="M74.7 19.99c1.36-1.5 2.81-2.94 4.32-4.29 1.49 1.37 2.92 2.81 4.28 4.31-1.36 1.5-2.8 2.93-4.31 4.29-1.5-1.37-2.93-2.81-4.29-4.31zm-1.64 7.11c1.52-1.79 3.35.31 5 .75 2.03.57 3.74-.85 5.33-1.87 6.16 3.85 10.54 9.91 15.89 14.75 4.32 3.69 5.27 10.73 1.57 15.16-3.43 3.91-7.31 7.39-10.92 11.11-7.19-.03-14.39.05-21.58-.04-3.45-3.67-7.22-7.03-10.58-10.78-3.65-4.12-3.29-10.92.65-14.73 4.87-4.78 9.47-9.88 14.64-14.35zM52 71h56v8H52v-8zm15.73 12c8.18 0 16.36-.01 24.54.01.01 3.66.01 7.32 0 10.98-8.18.01-16.36.01-24.54.01-.01-3.67-.01-7.33 0-11zM52 98h56v8H52v-8zm-1.69 34c3.45-7.35 6.86-14.71 10.37-22.02 12.85.01 25.71.09 38.57-.05 3.62 7.29 6.95 14.72 10.44 22.07H50.31zM36 136h88v8H36v-8z" fill="#0078d7"/></svg>