<svg viewBox="0 0 160 160" xmlns="http://www.w3.org/2000/svg"><path d="M98.74 25.95c5.26-4.33 10.44-8.75 15.85-12.89-.16 8.31-.07 16.63-.08 24.94 2.82.04 5.65-.13 8.48.07.99.96.35 2.65.6 3.89.2 17.33.57 34.66.76 51.99 1.55.01 3.1.04 4.65.08V110c-5.4.01-10.8-.01-16.19.01 3.42 7.33 6.86 14.67 10.33 21.99H137v16H41v-16c4.62-.01 9.25 0 13.87 0 3.45-7.33 6.9-14.66 10.32-21.99-5.39-.02-10.79 0-16.19-.01V94h12.16c4.54-5.55 8.98-11.18 13.53-16.71-11.57 1.53-23.12 3.29-34.68 4.92-2.01-7.91-4.04-15.82-5.99-23.75 15.11-10.7 30.06-21.64 45.21-32.26 6.47-.51 13.01.01 19.51-.25m1.31 4.05c-5.35-.01-10.7.03-16.05-.03-1.45.09-3.11-.3-4.32.74-13.71 9.81-27.41 19.63-41.12 29.45 1.46 5.86 2.95 11.71 4.44 17.57 13.74-1.95 27.47-3.97 41.22-5.91-5.94 7.41-11.94 14.77-17.89 22.17 18.01.02 36.03.01 54.04.01-.06-4-.12-8-.19-11.99-3.06 0-6.12-.02-9.18-.01v-4c3.04.01 6.08-.01 9.12-.01-.03-1.99-.06-3.99-.1-5.99-3 .01-6.01-.01-9.02 0v-4c2.99.01 5.98-.01 8.97 0l-.09-6c-2.96.01-5.92-.01-8.88 0v-4c2.94.02 5.87-.01 8.81-.01-.03-1.99-.06-3.98-.08-5.97-2.91-.01-5.82-.04-8.73-.02v-4c2.89.02 5.78-.02 8.67-.02-.04-1.87-.08-3.75-.11-5.62-3.02.01-6.04-.02-9.06-.01-.03-6.91.04-13.83-.03-20.75-3.59 2.66-6.93 5.61-10.42 8.4M53 98c-.01 2.67 0 5.33 0 8h72c0-2.67 0-5.33-.01-8H53m16.4 12.19c-3.14 7.37-6.77 14.52-10.09 21.81h59.38c-3.32-7.3-6.95-14.45-10.1-21.82-13.05-.29-26.14-.31-39.19.01M45.01 136c-.01 2.67-.02 5.33-.01 8h88v-8H45.01z"/><path d="M82.35 45.39c2.81-1.45 6.35 1.43 5.53 4.48-.5 2.66-3.99 4.04-6.14 2.38-2.51-1.56-2.12-5.76.61-6.86z"/><path d="M100.05 30c3.49-2.79 6.83-5.74 10.42-8.4.07 6.92 0 13.84.03 20.75 3.02-.01 6.04.02 9.06.01.03 1.87.07 3.75.11 5.62-2.89 0-5.78.04-8.67.02v4c2.91-.02 5.82.01 8.73.02.02 1.99.05 3.98.08 5.97-2.94 0-5.87.03-8.81.01v4c2.96-.01 5.92.01 8.88 0l.09 6c-2.99-.01-5.98.01-8.97 0v4c3.01-.01 6.02.01 9.02 0 .04 2 .07 4 .1 5.99-3.04 0-6.08.02-9.12.01v4c3.06-.01 6.12.01 9.18.01.07 3.99.13 7.99.19 11.99-18.01 0-36.03.01-54.04-.01 5.95-7.4 11.95-14.76 17.89-22.17-13.75 1.94-27.48 3.96-41.22 5.91-1.49-5.86-2.98-11.71-4.44-17.57 13.71-9.82 27.41-19.64 41.12-29.45 1.21-1.04 2.87-.65 4.32-.74 5.35.06 10.7.02 16.05.03m-17.7 15.39c-2.73 1.1-3.12 5.3-.61 6.86 2.15 1.66 5.64.28 6.14-2.38.82-3.05-2.72-5.93-5.53-4.48zM53 98h71.99c.01 2.67.01 5.33.01 8H53c0-2.67-.01-5.33 0-8zm16.4 12.19c13.05-.32 26.14-.3 39.19-.01 3.15 7.37 6.78 14.52 10.1 21.82H59.31c3.32-7.29 6.95-14.44 10.09-21.81zM45.01 136H133v8H45c-.01-2.67 0-5.33.01-8z" fill="#0078d7"/></svg>