<svg viewBox="0 0 160 160" xmlns="http://www.w3.org/2000/svg"><path d="M72.36 10.14c1.27-2.41 3.35-4.48 5.74-5.77 3.77-1.41 6.7 2.26 8.73 4.88 2.15 3.01-.46 6.19-2.65 8.24 2.9 4.62 5.8 9.24 8.63 13.91 4.94-2.62 9.83-5.33 14.76-7.97-1.37-2.4-2.71-5.83-.21-8.02 2.63-2.09 6.54-4.93 9.84-2.56 2 1.88 3.49 4.45 4.06 7.14.36 3.27-2.83 4.98-5.25 6.3-1.37 5.54-2.4 11.14-3.62 16.71 5.22.01 10.44-.04 15.67.04-1.81 9.3-3.35 18.65-5.07 27.96-3.66-.01-7.33.01-10.99 0v12c-4.64 0-9.28-.01-13.92.01v10.98c4.64.01 9.28.01 13.92.01v15.99c-1.85.01-3.71.01-5.56.02 3.82 7.33 7.65 14.67 11.48 21.99 3.36-.01 6.72.01 10.08 0v16H32v-16c3.36.01 6.72-.01 10.08 0 3.83-7.32 7.66-14.66 11.47-21.99-1.85-.01-3.7-.01-5.55-.01V94h13.92V83.01C57.28 82.99 52.64 83 48 83V71c-3.67.01-7.33-.01-10.99 0-1.71-9.32-3.27-18.66-5.06-27.96 5.06-.08 10.13-.03 15.2-.04-1.25-5.55-2.19-11.17-3.61-16.67-2.01-2.35-6.19-4.05-5.07-7.9 1.42-3.24 3.9-7.77 8.12-6.99 2.61 1 5.19 2.63 6.73 5.01 1.34 2.41-.31 4.87-1.53 6.9 5.11 2.83 10.17 5.75 15.35 8.47 2.69-4.8 5.75-9.39 8.6-14.1-1.96-1.97-4.69-4.49-3.38-7.58m3.36 1.81c1.36 1.36 2.75 2.7 4.18 3.99 1.35-1.34 2.69-2.69 4.04-4.04a88.33 88.33 0 0 0-4.03-4.18 31.603 31.603 0 0 0-4.19 4.23m-33.65 7.92a45.63 45.63 0 0 0 4.81 3.2c1.18-1.53 2.24-3.15 3.17-4.85-1.56-1.18-3.19-2.28-4.97-3.09-1.03 1.56-2.04 3.14-3.01 4.74m68.03-1.57c-.37 2.03 1.64 3.68 2.69 5.26 1.52-.96 3.07-1.87 4.67-2.7-.74-1.79-1.64-3.51-2.65-5.16-1.63.74-3.36 1.39-4.71 2.6M69.66 37.88c-7.35-3.76-14.22-8.55-21.87-11.65 1 5.62 2.32 11.17 3.44 16.76 19.02.03 38.04 0 57.06.01 1.13-5.38 2.33-10.75 3.36-16.16-1.65-.28-3.09.6-4.48 1.32-5.51 3.05-11.06 6.03-16.59 9.04-2.28-6.64-6.45-12.51-10.55-18.14-4.05 5.87-8.76 11.72-10.37 18.82m-32.87 9.13c1.17 6.66 2.39 13.31 3.54 19.97 26.45.03 52.89.03 79.34 0 1.15-6.66 2.37-13.31 3.54-19.97-28.81-.01-57.61-.01-86.42 0M52 71v8h56v-8H52m13.93 12.01c-.01 3.66-.01 7.32 0 10.98 9.38.01 18.76.01 28.14 0 .01-3.66.01-7.32 0-10.98-9.38-.01-18.76-.01-28.14 0M52 98v8h56v-8H52m6.09 12c-3.84 7.32-7.66 14.65-11.47 21.99 22.25.02 44.51.02 66.76 0-3.81-7.34-7.63-14.67-11.47-21.99H58.09M36 136v8h88v-8H36z"/><path d="M75.72 11.95c1.27-1.54 2.66-2.96 4.19-4.23a88.33 88.33 0 0 1 4.03 4.18c-1.35 1.35-2.69 2.7-4.04 4.04-1.43-1.29-2.82-2.63-4.18-3.99zm-33.65 7.92c.97-1.6 1.98-3.18 3.01-4.74 1.78.81 3.41 1.91 4.97 3.09-.93 1.7-1.99 3.32-3.17 4.85a45.63 45.63 0 0 1-4.81-3.2zm68.03-1.57c1.35-1.21 3.08-1.86 4.71-2.6 1.01 1.65 1.91 3.37 2.65 5.16-1.6.83-3.15 1.74-4.67 2.7-1.05-1.58-3.06-3.23-2.69-5.26zM69.66 37.88c1.61-7.1 6.32-12.95 10.37-18.82 4.1 5.63 8.27 11.5 10.55 18.14 5.53-3.01 11.08-5.99 16.59-9.04 1.39-.72 2.83-1.6 4.48-1.32-1.03 5.41-2.23 10.78-3.36 16.16-19.02-.01-38.04.02-57.06-.01-1.12-5.59-2.44-11.14-3.44-16.76 7.65 3.1 14.52 7.89 21.87 11.65zm-32.87 9.13c28.81-.01 57.61-.01 86.42 0-1.17 6.66-2.39 13.31-3.54 19.97-26.45.03-52.89.03-79.34 0-1.15-6.66-2.37-13.31-3.54-19.97zM52 71h56v8H52v-8zm13.93 12.01c9.38-.01 18.76-.01 28.14 0 .01 3.66.01 7.32 0 10.98-9.38.01-18.76.01-28.14 0-.01-3.66-.01-7.32 0-10.98zM52 98h56v8H52v-8zm6.09 12h43.82c3.84 7.32 7.66 14.65 11.47 21.99-22.25.02-44.51.02-66.76 0 3.81-7.34 7.63-14.67 11.47-21.99zM36 136h88v8H36v-8z" fill="#0078d7"/></svg>