<svg viewBox="0 0 160 160" xmlns="http://www.w3.org/2000/svg"><path d="M71.58 4c5.62 0 11.23 0 16.84.01 0 4.52-.01 9.04.01 13.56 4.52.02 9.04 0 13.57.01v16.84c-4.53.01-9.05-.01-13.57.01 0 2.84-.02 5.68-.04 8.52 13.22.15 26.44-.04 39.66.1-1.79 9.29-3.35 18.63-5.05 27.94-3.67.01-7.33.01-11 .01v12c-4.64.01-9.28-.01-13.92.01v10.98c4.64.02 9.28 0 13.92.01v15.99c-1.85.01-3.71.01-5.55.02 3.81 7.33 7.64 14.66 11.47 21.99 3.36-.01 6.72 0 10.08 0v16H32v-16c3.36 0 6.72-.01 10.08 0 3.83-7.32 7.66-14.66 11.47-21.99-1.85-.01-3.7-.01-5.55-.01V94c4.64-.01 9.28.01 13.92-.01V83.01c-4.64-.02-9.28 0-13.92-.01V71H37.01c-1.71-9.32-3.27-18.66-5.06-27.95 13.22-.14 26.44.03 39.65-.09-.01-2.84-.03-5.69-.03-8.53-4.52-.02-9.04 0-13.57-.02V17.58c4.53-.01 9.05.01 13.57-.01.02-4.52 0-9.04.01-13.57m4.01 4c-.02 4.53 0 9.05-.02 13.58-4.52.01-9.04-.01-13.57.01v8.82c4.53.02 9.05 0 13.57.01.02 4.19.01 8.38.02 12.57 2.94.01 5.88.01 8.82.01.01-4.2 0-8.38.01-12.57 4.53-.02 9.05 0 13.58-.02v-8.82c-4.53-.02-9.05 0-13.58-.02-.01-4.52 0-9.04-.01-13.56C81.47 8 78.53 8 75.59 8m-38.8 39.01c1.17 6.66 2.39 13.31 3.54 19.97 26.45.03 52.89.04 79.34 0 1.15-6.66 2.37-13.31 3.54-19.97-28.81-.01-57.61-.01-86.42 0M52 71v8h56v-8H52m13.93 12.01c-.01 3.66-.01 7.32 0 10.98 9.38.01 18.76.01 28.14 0 .01-3.66.01-7.32 0-10.98-9.38-.01-18.76-.01-28.14 0M52 98v8h56v-8H52m6.09 12c-3.84 7.32-7.66 14.65-11.47 21.99 22.25.02 44.51.02 66.76 0-3.81-7.34-7.63-14.67-11.47-21.99H58.09M36 136v8h88v-8H36z"/><path d="M75.59 8c2.94 0 5.88 0 8.82.01.01 4.52 0 9.04.01 13.56 4.53.02 9.05 0 13.58.02v8.82c-4.53.02-9.05 0-13.58.02-.01 4.19 0 8.37-.01 12.57-2.94 0-5.88 0-8.82-.01-.01-4.19 0-8.38-.02-12.57-4.52-.01-9.04.01-13.57-.01v-8.82c4.53-.02 9.05 0 13.57-.01.02-4.53 0-9.05.02-13.58zm-38.8 39.01c28.81-.01 57.61-.01 86.42 0-1.17 6.66-2.39 13.31-3.54 19.97-26.45.04-52.89.03-79.34 0-1.15-6.66-2.37-13.31-3.54-19.97zM52 71h56v8H52v-8zm13.93 12.01c9.38-.01 18.76-.01 28.14 0 .01 3.66.01 7.32 0 10.98-9.38.01-18.76.01-28.14 0-.01-3.66-.01-7.32 0-10.98zM52 98h56v8H52v-8zm6.09 12h43.82c3.84 7.32 7.66 14.65 11.47 21.99-22.25.02-44.51.02-66.76 0 3.81-7.34 7.63-14.67 11.47-21.99zM36 136h88v8H36v-8z" fill="#0078d7"/></svg>