<svg xmlns="http://www.w3.org/2000/svg" viewBox="0 0 53 53"><path d="M36.414 35H46a1 1 0 1 0 0-2H34a.996.996 0 0 0-1 1v12a1 1 0 1 0 2 0v-9.586l16.293 16.293a.997.997 0 0 0 1.414 0 .999.999 0 0 0 0-1.414L36.414 35zM16.585 17.999H6.999a1 1 0 1 0 0 2h12a.996.996 0 0 0 1-1v-12a1 1 0 1 0-2 0v9.586L1.707.293A.999.999 0 1 0 .293 1.707l16.292 16.292zm2.797 15.078A1.01 1.01 0 0 0 19 33H7a1 1 0 1 0 0 2h9.586L.293 51.293a.999.999 0 1 0 1.414 1.414L18 36.414V46a1 1 0 1 0 2 0V34a.996.996 0 0 0-.618-.923zm14.236-13.154c.122.05.252.077.382.077h12a1 1 0 1 0 0-2h-9.586L52.707 1.707A.999.999 0 1 0 51.293.293L35 16.586V7a1 1 0 1 0-2 0v12a.996.996 0 0 0 .618.923zM21 32h11V21H21v11zm2-9h7v7h-7v-7z"/></svg>