<svg viewBox="0 0 160 160" xmlns="http://www.w3.org/2000/svg"><path fill="#0078d7" d="M29.92 34.09c8.7-.2 17.4-.04 26.09-.09.67 2.67 1.32 5.33 1.99 8h10c-.01-2.67 0-5.33 0-8h24c-.01 2.67 0 5.33 0 8h10c.67-2.67 1.32-5.33 1.99-8 8.69.05 17.39-.11 26.09.09-3.56 12.24-6.68 24.61-10.09 36.91-2.66-.01-5.33.01-7.99 0v12c-5.25.01-10.49-.01-15.73.01v10.98c5.24.02 10.49 0 15.73.01v16h-8.2c3.44 7.34 6.87 14.68 10.33 22H128v16H32v-16h13.87c3.46-7.32 6.89-14.66 10.33-22-2.73 0-5.46-.01-8.2 0V94c5.24-.01 10.49.01 15.73-.01 0-3.66-.01-7.32 0-10.98-5.24-.02-10.48 0-15.73-.01-.01-4 0-8 0-12-2.67.01-5.33-.01-7.99 0-3.41-12.29-6.53-24.67-10.09-36.91M35.23 38c2.6 9.67 5.22 19.34 7.84 29h73.86c2.62-9.66 5.24-19.33 7.84-29h-17.64c-.67 2.67-1.34 5.33-2.01 7.99-5.71.02-11.41.01-17.12.01.01-2.67-.01-5.33 0-8H72c.01 2.67-.01 5.33 0 8-5.71 0-11.41 0-17.12-.01-.67-2.66-1.34-5.32-2-7.99-5.88-.01-11.76 0-17.65 0M52 71c0 2.67-.01 5.33 0 8h56v-8H52m15.73 12.01c-.01 3.66-.01 7.32 0 10.98 8.18.01 16.36.02 24.54 0 .01-3.66.01-7.32 0-10.98-8.18-.02-16.36-.02-24.54 0M52 98c0 2.67-.01 5.33 0 8h56v-8H52m-1.69 34h59.38c-3.48-7.35-6.83-14.75-10.41-22.04-12.88.09-25.76.02-38.64.04-3.46 7.32-6.9 14.66-10.33 22M36 136c-.01 2.67 0 5.33 0 8h88v-8H36z"/><path d="M35.23 38c5.89 0 11.77-.01 17.65 0 .66 2.67 1.33 5.33 2 7.99C60.59 46 66.29 46 72 46c-.01-2.67.01-5.33 0-8h16c-.01 2.67.01 5.33 0 8 5.71 0 11.41.01 17.12-.01.67-2.66 1.34-5.32 2.01-7.99h17.64c-2.6 9.67-5.22 19.34-7.84 29H43.07c-2.62-9.66-5.24-19.33-7.84-29zM52 71h56v8H52c-.01-2.67 0-5.33 0-8zm15.73 12.01c8.18-.02 16.36-.02 24.54 0 .01 3.66.01 7.32 0 10.98-8.18.02-16.36.01-24.54 0-.01-3.66-.01-7.32 0-10.98zM52 98h56v8H52c-.01-2.67 0-5.33 0-8zm-1.69 34c3.43-7.34 6.87-14.68 10.33-22 12.88-.02 25.76.05 38.64-.04 3.58 7.29 6.93 14.69 10.41 22.04H50.31zM36 136h88v8H36c0-2.67-.01-5.33 0-8z" fill="#fff"/></svg>