<svg viewBox="0 0 160 160" xmlns="http://www.w3.org/2000/svg"><g fill="#0078d7"><path d="M98.68 25.98c5.27-4.32 10.5-8.71 15.85-12.93-.02 8.31-.06 16.63-.02 24.95 2.91-.01 5.82.02 8.73-.03.45 2.31.34 4.67.37 7.01.26 16.34.51 32.67.76 49.01 1.54 0 3.08.01 4.63.02V110c-5.4 0-10.8-.01-16.2 0 3.44 7.34 6.87 14.68 10.33 22H137v16H41v-16h13.87c3.46-7.32 6.89-14.66 10.33-22-5.4-.01-10.8 0-16.2 0V94h12.16c4.56-5.55 9-11.21 13.58-16.75-11.58 1.61-23.16 3.3-34.73 4.96-2.01-7.91-4.02-15.82-6-23.73 15.12-10.8 30.23-21.61 45.31-32.46 6.46-.06 12.91.02 19.36-.04m1.34 4.02c-6.55.22-13.25-.43-19.71.31-13.97 9.87-27.83 19.91-41.75 29.85 1.46 5.86 2.95 11.71 4.44 17.57 13.74-1.94 27.47-3.96 41.22-5.91-5.95 7.4-11.94 14.77-17.89 22.17 18.01.02 36.03.01 54.04 0-.05-3.99-.12-7.99-.19-11.98-3.06-.01-6.12-.01-9.18-.01.01-1.34.01-2.67 0-4 3.04 0 6.08 0 9.12-.01l-.09-5.98c-3.01-.01-6.02-.02-9.03-.01.01-1.33 0-2.67 0-4h8.97l-.09-5.99c-2.96-.01-5.92-.02-8.88-.01.01-1.33.01-2.67 0-4 2.94.01 5.88 0 8.82-.01-.04-1.99-.07-3.98-.09-5.98-2.91-.01-5.82-.02-8.73-.01.01-1.33.01-2.67 0-4 2.89.01 5.78-.01 8.67-.01-.04-1.88-.07-3.75-.11-5.63-3.02 0-6.04-.01-9.05-.01-.02-6.97-.01-13.94-.01-20.92-3.49 2.87-6.97 5.73-10.48 8.57M53 98v8h72v-8H53m16.41 12.18c-3.16 7.36-6.77 14.53-10.1 21.82h59.38c-3.51-7.35-6.79-14.81-10.46-22.07-12.94.28-25.89-.22-38.82.25M45 136v8h88v-8H45z"/><path d="M82.37 45.39c3.11-1.63 6.85 2.1 5.25 5.22-1.07 2.76-5.3 3.17-6.86.65-1.46-1.9-.6-4.96 1.61-5.87z"/></g><path d="M100.02 30c3.51-2.84 6.99-5.7 10.48-8.57 0 6.98-.01 13.95.01 20.92 3.01 0 6.03.01 9.05.01.04 1.88.07 3.75.11 5.63-2.89 0-5.78.02-8.67.01.01 1.33.01 2.67 0 4 2.91-.01 5.82 0 8.73.01.02 2 .05 3.99.09 5.98-2.94.01-5.88.02-8.82.01.01 1.33.01 2.67 0 4 2.96-.01 5.92 0 8.88.01l.09 5.99H111c0 1.33.01 2.67 0 4 3.01-.01 6.02 0 9.03.01l.09 5.98c-3.04.01-6.08.01-9.12.01.01 1.33.01 2.66 0 4 3.06 0 6.12 0 9.18.01.07 3.99.14 7.99.19 11.98-18.01.01-36.03.02-54.04 0 5.95-7.4 11.94-14.77 17.89-22.17-13.75 1.95-27.48 3.97-41.22 5.91-1.49-5.86-2.98-11.71-4.44-17.57 13.92-9.94 27.78-19.98 41.75-29.85 6.46-.74 13.16-.09 19.71-.31M82.37 45.39c-2.21.91-3.07 3.97-1.61 5.87 1.56 2.52 5.79 2.11 6.86-.65 1.6-3.12-2.14-6.85-5.25-5.22zM53 98h72v8H53v-8zm16.41 12.18c12.93-.47 25.88.03 38.82-.25 3.67 7.26 6.95 14.72 10.46 22.07H59.31c3.33-7.29 6.94-14.46 10.1-21.82zM45 136h88v8H45v-8z" fill="#fff"/></svg>