<svg viewBox="0 0 160 160" xmlns="http://www.w3.org/2000/svg"><path fill="#0078d7" d="M60.65 46.68c3.34-6.39 10.03-10.88 17.22-11.5 7.39-.8 15.03 2.52 19.51 8.44 5.68 7.16 6.11 18.02.84 25.52-.72 1.24-2.05 2.32-1.94 3.88-.03 6.99.01 13.98-.01 20.97 5.24.02 10.48 0 15.73.01v16h-8.2c3.44 7.34 6.87 14.68 10.33 22H128v16H32v-16h13.87c3.46-7.32 6.89-14.66 10.33-22H48V94c5.24-.01 10.49.01 15.73-.01-.02-7.01.02-14.02-.01-21.02.13-1.29-.91-2.22-1.52-3.22-4.9-6.54-5.45-15.91-1.55-23.07m14.82-7.05c-9.58 2.23-15.76 13.19-12.66 22.55 2.55 9.25 13.27 15.04 22.4 12 9-2.51 14.75-12.74 12.15-21.74-2.2-9.31-12.66-15.47-21.89-12.81m-7.79 35.62c.1 6.25.02 12.5.05 18.74 8.18.01 16.36.01 24.54 0 .03-6.24-.05-12.49.05-18.74-7.32 4.86-17.32 4.87-24.64 0M52 98v8h56v-8H52m-1.69 34h59.38c-3.48-7.35-6.82-14.77-10.42-22.05-12.88.11-25.75.02-38.63.04-3.46 7.33-6.9 14.67-10.33 22.01M36 136v8h88v-8H36z"/><g fill="#fff"><path d="M75.47 39.63c9.23-2.66 19.69 3.5 21.89 12.81 2.6 9-3.15 19.23-12.15 21.74-9.13 3.04-19.85-2.75-22.4-12-3.1-9.36 3.08-20.32 12.66-22.55z"/><path d="M67.68 75.25c7.32 4.87 17.32 4.86 24.64 0-.1 6.25-.02 12.5-.05 18.74-8.18.01-16.36.01-24.54 0-.03-6.24.05-12.49-.05-18.74zM52 98h56v8H52v-8zm-1.69 34c3.43-7.34 6.87-14.68 10.33-22.01 12.88-.02 25.75.07 38.63-.04 3.6 7.28 6.94 14.7 10.42 22.05H50.31zM36 136h88v8H36v-8z"/></g></svg>