<svg viewBox="0 0 160 160" xmlns="http://www.w3.org/2000/svg"><path fill="#0078d7" d="M71.58 4.01c5.61-.01 11.23-.01 16.84 0 0 4.52-.01 9.04.01 13.56 4.52.02 9.04.01 13.56.01.01 5.61.01 11.23 0 16.84-4.52 0-9.04-.01-13.56.01-.01 2.85-.02 5.7-.02 8.56 13.22.07 26.44-.09 39.66.08-1.84 9.28-3.35 18.62-5.08 27.93H112v12c-4.64.01-9.28-.01-13.92 0v10.99c4.64.02 9.28 0 13.92.01v16c-1.86 0-3.71 0-5.56.01 3.82 7.33 7.64 14.66 11.48 21.99H128v16H32v-16h10.09c3.83-7.33 7.65-14.66 11.47-21.99-1.85-.01-3.71-.01-5.56-.01V94c4.64-.01 9.28.01 13.92 0V83c-4.64-.01-9.28.01-13.92 0V71H37.01c-1.73-9.31-3.24-18.65-5.08-27.93 13.22-.16 26.44-.01 39.66-.08 0-2.86-.01-5.71-.02-8.56-4.52-.02-9.04-.01-13.56-.01-.01-5.61-.01-11.23 0-16.84 4.52 0 9.04.01 13.56-.01.02-4.52.01-9.04.01-13.56m4.01 4c-.02 4.52 0 9.04-.02 13.56-4.52.02-9.04 0-13.56.01-.02 2.95-.02 5.89 0 8.84 4.52.01 9.04-.01 13.56.01.02 4.18 0 8.37.02 12.56 2.94.01 5.88.01 8.82 0 .02-4.19 0-8.38.02-12.56 4.52-.02 9.04 0 13.56-.02.01-2.94.01-5.88 0-8.83-4.52-.01-9.04.01-13.56-.01-.02-4.52 0-9.04-.01-13.56-2.95-.02-5.89-.02-8.83 0m-38.8 39c1.17 6.66 2.38 13.31 3.55 19.98 26.44.02 52.88.02 79.32-.01 1.16-6.66 2.38-13.31 3.55-19.97-28.81-.02-57.61-.02-86.42 0M52 71c-.01 2.67 0 5.33 0 8h56v-8H52m13.92 12.01c-.01 3.66-.01 7.32 0 10.98 9.39.01 18.77.01 28.15 0 .02-3.66.02-7.32.01-10.98-9.39-.01-18.77-.02-28.16 0M52 98v8h56v-8H52m6.09 12c-3.84 7.32-7.66 14.66-11.48 21.99 22.26.01 44.52.01 66.78 0-3.82-7.33-7.64-14.67-11.48-21.99H58.09M36 136v8h88v-8H36z"/><path d="M75.59 8.01c2.94-.02 5.88-.02 8.83 0 .01 4.52-.01 9.04.01 13.56 4.52.02 9.04 0 13.56.01.01 2.95.01 5.89 0 8.83-4.52.02-9.04 0-13.56.02-.02 4.18 0 8.37-.02 12.56-2.94.01-5.88.01-8.82 0-.02-4.19 0-8.38-.02-12.56-4.52-.02-9.04 0-13.56-.01-.02-2.95-.02-5.89 0-8.84 4.52-.01 9.04.01 13.56-.01.02-4.52 0-9.04.02-13.56zm-38.8 39c28.81-.02 57.61-.02 86.42 0-1.17 6.66-2.39 13.31-3.55 19.97-26.44.03-52.88.03-79.32.01-1.17-6.67-2.38-13.32-3.55-19.98zM52 71h56v8H52c0-2.67-.01-5.33 0-8zm13.92 12.01c9.39-.02 18.77-.01 28.16 0 .01 3.66.01 7.32-.01 10.98-9.38.01-18.76.01-28.15 0-.01-3.66-.01-7.32 0-10.98zM52 98h56v8H52v-8zm6.09 12h43.82c3.84 7.32 7.66 14.66 11.48 21.99-22.26.01-44.52.01-66.78 0 3.82-7.33 7.64-14.67 11.48-21.99zM36 136h88v8H36v-8z" fill="#fff"/></svg>