<?xml version="1.0" encoding="UTF-8" ?>
<!DOCTYPE svg PUBLIC "-//W3C//DTD SVG 1.1//EN" "http://www.w3.org/Graphics/SVG/1.1/DTD/svg11.dtd">
<svg width="160pt" height="160pt" viewBox="0 0 160 160" version="1.1" xmlns="http://www.w3.org/2000/svg">
<g id="#0078d7ff">
<path fill="#0078d7" opacity="1.00" d=" M 98.68 25.98 C 103.95 21.66 109.18 17.27 114.53 13.05 C 114.51 21.36 114.47 29.68 114.51 38.00 C 117.42 37.99 120.33 38.02 123.24 37.97 C 123.69 40.28 123.58 42.64 123.61 44.98 C 123.87 61.32 124.12 77.65 124.37 93.99 C 125.91 93.99 127.45 94.00 129.00 94.01 C 129.00 99.34 129.00 104.67 129.00 110.00 C 123.60 110.00 118.20 109.99 112.80 110.00 C 116.24 117.34 119.67 124.68 123.13 132.00 C 127.75 132.00 132.38 132.00 137.00 132.00 C 137.00 137.33 137.00 142.67 137.00 148.00 C 105.00 148.00 73.00 148.00 41.00 148.00 C 41.00 142.67 41.00 137.33 41.00 132.00 C 45.62 132.00 50.25 132.00 54.87 132.00 C 58.33 124.68 61.76 117.34 65.20 110.00 C 59.80 109.99 54.40 110.00 49.00 110.00 C 49.00 104.67 49.00 99.33 49.00 94.00 C 53.06 94.00 57.11 94.00 61.16 94.00 C 65.72 88.45 70.16 82.79 74.74 77.25 C 63.16 78.86 51.58 80.55 40.01 82.21 C 38.00 74.30 35.99 66.39 34.01 58.48 C 49.13 47.68 64.24 36.87 79.32 26.02 C 85.78 25.96 92.23 26.04 98.68 25.98 M 100.02 30.00 C 93.47 30.22 86.77 29.57 80.31 30.31 C 66.34 40.18 52.48 50.22 38.56 60.16 C 40.02 66.02 41.51 71.87 43.00 77.73 C 56.74 75.79 70.47 73.77 84.22 71.82 C 78.27 79.22 72.28 86.59 66.33 93.99 C 84.34 94.01 102.36 94.00 120.37 93.99 C 120.32 90.00 120.25 86.00 120.18 82.01 C 117.12 82.00 114.06 82.00 111.00 82.00 C 111.01 80.66 111.01 79.33 111.00 78.00 C 114.04 78.00 117.08 78.00 120.12 77.99 C 120.09 76.00 120.06 74.00 120.03 72.01 C 117.02 72.00 114.01 71.99 111.00 72.00 C 111.01 70.67 111.00 69.33 111.00 68.00 C 113.99 68.00 116.98 68.00 119.97 68.00 C 119.94 66.00 119.91 64.00 119.88 62.01 C 116.92 62.00 113.96 61.99 111.00 62.00 C 111.01 60.67 111.01 59.33 111.00 58.00 C 113.94 58.01 116.88 58.00 119.82 57.99 C 119.78 56.00 119.75 54.01 119.73 52.01 C 116.82 52.00 113.91 51.99 111.00 52.00 C 111.01 50.67 111.01 49.33 111.00 48.00 C 113.89 48.01 116.78 47.99 119.67 47.99 C 119.63 46.11 119.60 44.24 119.56 42.36 C 116.54 42.36 113.52 42.35 110.51 42.35 C 110.49 35.38 110.50 28.41 110.50 21.43 C 107.01 24.30 103.53 27.16 100.02 30.00 M 53.00 98.00 C 53.00 100.67 53.00 103.33 53.00 106.00 C 77.00 106.00 101.00 106.00 125.00 106.00 C 125.00 103.33 125.00 100.67 125.00 98.00 C 101.00 98.00 77.00 98.00 53.00 98.00 M 69.41 110.18 C 66.25 117.54 62.64 124.71 59.31 132.00 C 79.10 132.00 98.90 132.00 118.69 132.00 C 115.18 124.65 111.90 117.19 108.23 109.93 C 95.29 110.21 82.34 109.71 69.41 110.18 M 45.00 136.00 C 45.00 138.67 45.00 141.33 45.00 144.00 C 74.33 144.00 103.66 144.00 133.00 144.00 C 133.00 141.33 133.00 138.67 133.00 136.00 C 103.66 136.00 74.33 136.00 45.00 136.00 Z" />
<path fill="#0078d7" opacity="1.00" d=" M 82.37 45.39 C 85.48 43.76 89.22 47.49 87.62 50.61 C 86.55 53.37 82.32 53.78 80.76 51.26 C 79.30 49.36 80.16 46.30 82.37 45.39 Z" />
</g>
<g id="#ffffffff">
<path fill="#ffffff" opacity="1.00" d=" M 100.02 30.00 C 103.53 27.16 107.01 24.30 110.50 21.43 C 110.50 28.41 110.49 35.38 110.51 42.35 C 113.52 42.35 116.54 42.36 119.56 42.36 C 119.60 44.24 119.63 46.11 119.67 47.99 C 116.78 47.99 113.89 48.01 111.00 48.00 C 111.01 49.33 111.01 50.67 111.00 52.00 C 113.91 51.99 116.82 52.00 119.73 52.01 C 119.75 54.01 119.78 56.00 119.82 57.99 C 116.88 58.00 113.94 58.01 111.00 58.00 C 111.01 59.33 111.01 60.67 111.00 62.00 C 113.96 61.99 116.92 62.00 119.88 62.01 C 119.91 64.00 119.94 66.00 119.97 68.00 C 116.98 68.00 113.99 68.00 111.00 68.00 C 111.00 69.33 111.01 70.67 111.00 72.00 C 114.01 71.99 117.02 72.00 120.03 72.01 C 120.06 74.00 120.09 76.00 120.12 77.99 C 117.08 78.00 114.04 78.00 111.00 78.00 C 111.01 79.33 111.01 80.66 111.00 82.00 C 114.06 82.00 117.12 82.00 120.18 82.01 C 120.25 86.00 120.32 90.00 120.37 93.99 C 102.36 94.00 84.34 94.01 66.33 93.99 C 72.28 86.59 78.27 79.22 84.22 71.82 C 70.47 73.77 56.74 75.79 43.00 77.73 C 41.51 71.87 40.02 66.02 38.56 60.16 C 52.48 50.22 66.34 40.18 80.31 30.31 C 86.77 29.57 93.47 30.22 100.02 30.00 M 82.37 45.39 C 80.16 46.30 79.30 49.36 80.76 51.26 C 82.32 53.78 86.55 53.37 87.62 50.61 C 89.22 47.49 85.48 43.76 82.37 45.39 Z" />
<path fill="#ffffff" opacity="1.00" d=" M 53.00 98.00 C 77.00 98.00 101.00 98.00 125.00 98.00 C 125.00 100.67 125.00 103.33 125.00 106.00 C 101.00 106.00 77.00 106.00 53.00 106.00 C 53.00 103.33 53.00 100.67 53.00 98.00 Z" />
<path fill="#ffffff" opacity="1.00" d=" M 69.41 110.18 C 82.34 109.71 95.29 110.21 108.23 109.93 C 111.90 117.19 115.18 124.65 118.69 132.00 C 98.90 132.00 79.10 132.00 59.31 132.00 C 62.64 124.71 66.25 117.54 69.41 110.18 Z" />
<path fill="#ffffff" opacity="1.00" d=" M 45.00 136.00 C 74.33 136.00 103.66 136.00 133.00 136.00 C 133.00 138.67 133.00 141.33 133.00 144.00 C 103.66 144.00 74.33 144.00 45.00 144.00 C 45.00 141.33 45.00 138.67 45.00 136.00 Z" />
</g>
</svg>
