<svg viewBox="0 0 160 160" xmlns="http://www.w3.org/2000/svg"><path fill="#0078d7" d="M77.53 12.27c3.68-1.11 6.43 2.37 8.48 4.87 1.39 1.66.9 3.89.22 5.73 5.77 4.1 10.23 9.72 15.39 14.53 4.45 3.9 6.76 10.26 4.92 16.03-1.61 5.77-7.06 9-10.59 13.48 5.34.18 10.7.05 16.05.09v16c-5.24.01-10.49-.01-15.73.01v10.98c5.24.02 10.49 0 15.73.01v16h-8.2c3.44 7.34 6.87 14.67 10.33 22H128v16H32v-16h13.87c3.46-7.33 6.89-14.66 10.33-22H48V94c5.24-.01 10.49.01 15.73-.01-.01-3.66-.01-7.32 0-10.98-5.24-.02-10.49 0-15.73-.01V67h14.77c-4.23-4.68-10.32-8.58-11.33-15.3-1.07-5.52 1.55-11.04 5.66-14.64 4.93-4.64 9.3-9.93 14.73-14.02-2.54-4.59 1.96-8.84 5.7-10.77M74.71 20c1.34 1.52 2.78 2.95 4.31 4.29A55.75 55.75 0 0 0 83.29 20 54.266 54.266 0 0 0 79 15.71 51.08 51.08 0 0 0 74.71 20m-1.61 7.08c-5.21 4.47-9.83 9.61-14.73 14.42-3.9 3.81-4.23 10.58-.6 14.68 3.36 3.75 7.13 7.12 10.58 10.78 7.2.09 14.39.02 21.58.04 3.32-3.34 6.71-6.61 9.98-10 2.59-2.58 3.82-6.45 3.03-10.04-.91-4.68-5.16-7.45-8.18-10.76-3.74-3.44-6.85-7.69-11.33-10.23-1.6 1.02-3.35 2.46-5.4 1.88-1.62-.44-3.41-2.55-4.93-.77M52 71v8h56v-8H52m15.73 12.01c-.01 3.66-.01 7.32 0 10.98 8.18.01 16.36.01 24.54 0 .01-3.66.01-7.32 0-10.98-8.18-.01-16.36-.01-24.54 0M52 98v8h56v-8H52m8.45 12.13c-3.21 7.37-6.79 14.56-10.14 21.87h59.38c-3.5-7.35-6.8-14.8-10.45-22.07-12.93.25-25.86-.15-38.79.2M36 136v8h88v-8H36z"/><path d="M74.71 20A51.08 51.08 0 0 1 79 15.71c1.51 1.35 2.94 2.78 4.29 4.29a55.75 55.75 0 0 1-4.27 4.29A47.167 47.167 0 0 1 74.71 20zm-1.61 7.08c1.52-1.78 3.31.33 4.93.77 2.05.58 3.8-.86 5.4-1.88 4.48 2.54 7.59 6.79 11.33 10.23 3.02 3.31 7.27 6.08 8.18 10.76.79 3.59-.44 7.46-3.03 10.04-3.27 3.39-6.66 6.66-9.98 10-7.19-.02-14.38.05-21.58-.04-3.45-3.66-7.22-7.03-10.58-10.78-3.63-4.1-3.3-10.87.6-14.68 4.9-4.81 9.52-9.95 14.73-14.42zM52 71h56v8H52v-8zm15.73 12.01c8.18-.01 16.36-.01 24.54 0 .01 3.66.01 7.32 0 10.98-8.18.01-16.36.01-24.54 0-.01-3.66-.01-7.32 0-10.98zM52 98h56v8H52v-8zm8.45 12.13c12.93-.35 25.86.05 38.79-.2 3.65 7.27 6.95 14.72 10.45 22.07H50.31c3.35-7.31 6.93-14.5 10.14-21.87zM36 136h88v8H36v-8z" fill="#fff"/></svg>