<?xml version="1.0" encoding="UTF-8" ?>
<!DOCTYPE svg PUBLIC "-//W3C//DTD SVG 1.1//EN" "http://www.w3.org/Graphics/SVG/1.1/DTD/svg11.dtd">
<svg width="160pt" height="160pt" viewBox="0 0 160 160" version="1.1" xmlns="http://www.w3.org/2000/svg">
<g id="#0078d7ff">
<path fill="#0078d7" opacity="1.00" d=" M 29.92 34.09 C 38.62 33.89 47.32 34.05 56.01 34.00 C 56.68 36.67 57.33 39.33 58.00 42.00 C 61.33 42.00 64.67 42.00 68.00 42.00 C 67.99 39.33 68.00 36.67 68.00 34.00 C 76.00 34.00 84.00 34.00 92.00 34.00 C 91.99 36.67 92.00 39.33 92.00 42.00 C 95.33 42.00 98.67 42.00 102.00 42.00 C 102.67 39.33 103.32 36.67 103.99 34.00 C 112.68 34.05 121.38 33.89 130.08 34.09 C 126.52 46.33 123.40 58.70 119.99 71.00 C 117.33 70.99 114.66 71.01 112.00 71.00 C 112.00 75.00 112.00 79.00 112.00 83.00 C 106.75 83.01 101.51 82.99 96.27 83.01 C 96.27 86.67 96.27 90.33 96.27 93.99 C 101.51 94.01 106.76 93.99 112.00 94.00 C 112.00 99.33 112.00 104.67 112.00 110.00 C 109.26 110.00 106.53 110.00 103.80 110.00 C 107.24 117.34 110.67 124.68 114.13 132.00 C 118.75 132.00 123.38 132.00 128.00 132.00 C 128.00 137.33 128.00 142.67 128.00 148.00 C 96.00 148.00 64.00 148.00 32.00 148.00 C 32.00 142.67 32.00 137.33 32.00 132.00 C 36.62 132.00 41.25 132.00 45.87 132.00 C 49.33 124.68 52.76 117.34 56.20 110.00 C 53.47 110.00 50.74 109.99 48.00 110.00 C 48.00 104.67 48.00 99.33 48.00 94.00 C 53.24 93.99 58.49 94.01 63.73 93.99 C 63.73 90.33 63.72 86.67 63.73 83.01 C 58.49 82.99 53.25 83.01 48.00 83.00 C 47.99 79.00 48.00 75.00 48.00 71.00 C 45.33 71.01 42.67 70.99 40.01 71.00 C 36.60 58.71 33.48 46.33 29.92 34.09 M 35.23 38.00 C 37.83 47.67 40.45 57.34 43.07 67.00 C 67.69 67.00 92.31 67.00 116.93 67.00 C 119.55 57.34 122.17 47.67 124.77 38.00 C 118.89 38.00 113.01 38.00 107.13 38.00 C 106.46 40.67 105.79 43.33 105.12 45.99 C 99.41 46.01 93.71 46.00 88.00 46.00 C 88.01 43.33 87.99 40.67 88.00 38.00 C 82.67 38.00 77.33 38.00 72.00 38.00 C 72.01 40.67 71.99 43.33 72.00 46.00 C 66.29 46.00 60.59 46.00 54.88 45.99 C 54.21 43.33 53.54 40.67 52.88 38.00 C 47.00 37.99 41.12 38.00 35.23 38.00 M 52.00 71.00 C 52.00 73.67 51.99 76.33 52.00 79.00 C 70.67 79.00 89.33 79.00 108.00 79.00 C 108.00 76.33 108.00 73.67 108.00 71.00 C 89.33 71.00 70.67 71.00 52.00 71.00 M 67.73 83.01 C 67.72 86.67 67.72 90.33 67.73 93.99 C 75.91 94.00 84.09 94.01 92.27 93.99 C 92.28 90.33 92.28 86.67 92.27 83.01 C 84.09 82.99 75.91 82.99 67.73 83.01 M 52.00 98.00 C 52.00 100.67 51.99 103.33 52.00 106.00 C 70.67 106.00 89.33 106.00 108.00 106.00 C 108.00 103.33 108.00 100.67 108.00 98.00 C 89.33 98.00 70.67 98.00 52.00 98.00 M 50.31 132.00 C 70.10 132.00 89.90 132.00 109.69 132.00 C 106.21 124.65 102.86 117.25 99.28 109.96 C 86.40 110.05 73.52 109.98 60.64 110.00 C 57.18 117.32 53.74 124.66 50.31 132.00 M 36.00 136.00 C 35.99 138.67 36.00 141.33 36.00 144.00 C 65.34 144.00 94.66 144.00 124.00 144.00 C 124.00 141.33 124.00 138.67 124.00 136.00 C 94.66 136.00 65.33 136.00 36.00 136.00 Z" />
</g>
<g id="#ffffffff">
<path fill="#ffffff" opacity="1.00" d=" M 35.23 38.00 C 41.12 38.00 47.00 37.99 52.88 38.00 C 53.54 40.67 54.21 43.33 54.88 45.99 C 60.59 46.00 66.29 46.00 72.00 46.00 C 71.99 43.33 72.01 40.67 72.00 38.00 C 77.33 38.00 82.67 38.00 88.00 38.00 C 87.99 40.67 88.01 43.33 88.00 46.00 C 93.71 46.00 99.41 46.01 105.12 45.99 C 105.79 43.33 106.46 40.67 107.13 38.00 C 113.01 38.00 118.89 38.00 124.77 38.00 C 122.17 47.67 119.55 57.34 116.93 67.00 C 92.31 67.00 67.69 67.00 43.07 67.00 C 40.45 57.34 37.83 47.67 35.23 38.00 Z" />
<path fill="#ffffff" opacity="1.00" d=" M 52.00 71.00 C 70.67 71.00 89.33 71.00 108.00 71.00 C 108.00 73.67 108.00 76.33 108.00 79.00 C 89.33 79.00 70.67 79.00 52.00 79.00 C 51.99 76.33 52.00 73.67 52.00 71.00 Z" />
<path fill="#ffffff" opacity="1.00" d=" M 67.73 83.01 C 75.91 82.99 84.09 82.99 92.27 83.01 C 92.28 86.67 92.28 90.33 92.27 93.99 C 84.09 94.01 75.91 94.00 67.73 93.99 C 67.72 90.33 67.72 86.67 67.73 83.01 Z" />
<path fill="#ffffff" opacity="1.00" d=" M 52.00 98.00 C 70.67 98.00 89.33 98.00 108.00 98.00 C 108.00 100.67 108.00 103.33 108.00 106.00 C 89.33 106.00 70.67 106.00 52.00 106.00 C 51.99 103.33 52.00 100.67 52.00 98.00 Z" />
<path fill="#ffffff" opacity="1.00" d=" M 50.31 132.00 C 53.74 124.66 57.18 117.32 60.64 110.00 C 73.52 109.98 86.40 110.05 99.28 109.96 C 102.86 117.25 106.21 124.65 109.69 132.00 C 89.90 132.00 70.10 132.00 50.31 132.00 Z" />
<path fill="#ffffff" opacity="1.00" d=" M 36.00 136.00 C 65.33 136.00 94.66 136.00 124.00 136.00 C 124.00 138.67 124.00 141.33 124.00 144.00 C 94.66 144.00 65.34 144.00 36.00 144.00 C 36.00 141.33 35.99 138.67 36.00 136.00 Z" />
</g>
</svg>
