<svg viewBox="0 0 160 160" xmlns="http://www.w3.org/2000/svg"><path fill="#0078d7" d="M72.72 9.42c2.01-2.75 5.12-6.55 8.98-4.99 2.33 1.33 4.35 3.35 5.61 5.72 1.27 2.98-1.34 5.37-3.1 7.39 2.89 4.6 5.77 9.22 8.6 13.86 4.92-2.61 9.78-5.31 14.69-7.92-.98-2.31-2.57-5.22-.63-7.51 1.86-2 4.41-3.46 7.08-4.04 3.99-.26 5.9 4.04 7.12 7.14 1.21 3.64-2.46 5.83-5.09 7.31-1.33 5.51-2.39 11.08-3.6 16.62 5.23.01 10.45-.03 15.68.04-1.81 9.3-3.36 18.64-5.06 27.96h-11v12H98.08v11H112v16c-1.86 0-3.71 0-5.56.01 3.82 7.33 7.64 14.66 11.47 21.99H128v16H32v-16h10.09c3.83-7.33 7.65-14.66 11.47-21.99-1.85-.01-3.71-.01-5.56-.01V94h13.92V83H48V71H37c-1.7-9.32-3.25-18.66-5.06-27.96 5.07-.07 10.15-.03 15.22-.04-1.28-5.55-2.15-11.2-3.65-16.69-1.85-2.26-5.6-3.67-5.15-7.17.62-2.79 2.48-5.31 4.69-7.09 3.47-2.08 7.13 1.05 9.55 3.36 2.34 2.36.67 5.65-.76 7.98 5.1 2.8 10.13 5.72 15.28 8.43 2.73-4.77 5.72-9.37 8.61-14.04-2.11-2.15-5.07-5.16-3.01-8.36m2.93 2.48c1.4 1.36 2.81 2.72 4.24 4.05 1.37-1.34 2.72-2.69 4.05-4.06a229.69 229.69 0 0 0-4.03-4.24 155.21 155.21 0 0 0-4.26 4.25m-33.62 7.71c1.55 1.27 3.16 2.46 4.81 3.6 1.13-1.66 2.24-3.32 3.31-5.01-1.63-1.06-3.27-2.11-4.94-3.12-1.07 1.5-2.13 3.01-3.18 4.53m68.06-1.32c-.31 2.03 1.73 3.65 2.63 5.35 1.49-.9 3.03-1.75 4.42-2.81-.06-1.94-1.55-3.52-2.33-5.23-1.61.82-3.28 1.59-4.72 2.69M69.6 37.86c-7.29-3.87-14.26-8.38-21.8-11.77.95 5.67 2.3 11.26 3.43 16.9 19.02.02 38.04 0 57.05.02 1.14-5.5 2.46-10.96 3.35-16.51-7.5 2.45-13.92 7.29-21.03 10.63-2.34-6.65-6.56-12.43-10.54-18.18-4.05 5.94-8.71 11.81-10.46 18.91M36.78 47c1.18 6.67 2.39 13.32 3.56 19.99 26.44.02 52.88.01 79.32 0 1.17-6.67 2.38-13.32 3.56-19.99H36.78M52 71v8h56v-8H52m13.92 12v11h28.16V83H65.92M52 98v8h56v-8H52m6.08 12c-3.82 7.33-7.66 14.66-11.47 21.99 22.26.01 44.52.01 66.78 0-3.82-7.33-7.64-14.66-11.47-21.99H58.08M36 136v8h88v-8H36z"/><path d="M75.65 11.9c1.39-1.44 2.81-2.86 4.26-4.25 1.36 1.4 2.71 2.81 4.03 4.24-1.33 1.37-2.68 2.72-4.05 4.06-1.43-1.33-2.84-2.69-4.24-4.05zm-33.62 7.71c1.05-1.52 2.11-3.03 3.18-4.53 1.67 1.01 3.31 2.06 4.94 3.12a180.48 180.48 0 0 1-3.31 5.01 73.398 73.398 0 0 1-4.81-3.6zm68.06-1.32c1.44-1.1 3.11-1.87 4.72-2.69.78 1.71 2.27 3.29 2.33 5.23-1.39 1.06-2.93 1.91-4.42 2.81-.9-1.7-2.94-3.32-2.63-5.35zM69.6 37.86c1.75-7.1 6.41-12.97 10.46-18.91 3.98 5.75 8.2 11.53 10.54 18.18 7.11-3.34 13.53-8.18 21.03-10.63-.89 5.55-2.21 11.01-3.35 16.51-19.01-.02-38.03 0-57.05-.02-1.13-5.64-2.48-11.23-3.43-16.9 7.54 3.39 14.51 7.9 21.8 11.77zM36.78 47h86.44c-1.18 6.67-2.39 13.32-3.56 19.99-26.44.01-52.88.02-79.32 0-1.17-6.67-2.38-13.32-3.56-19.99zM52 71h56v8H52v-8zm13.92 12h28.16v11H65.92V83zM52 98h56v8H52v-8zm6.08 12h43.84c3.83 7.33 7.65 14.66 11.47 21.99-22.26.01-44.52.01-66.78 0 3.81-7.33 7.65-14.66 11.47-21.99zM36 136h88v8H36v-8z" fill="#fff"/></svg>